<svg viewBox="0 0 24 24" xmlns="http://www.w3.org/2000/svg">
  <path fill="#FEE500" d="M12 3c5.799 0 10.5 3.664 10.5 8.185 0 4.52-4.701 8.184-10.5 8.184a13.5 13.5 0 0 1-1.727-.11l-4.408 2.883c-.501.265-.678.236-.472-.413l.892-3.678c-2.88-1.46-4.785-3.99-4.785-6.866C1.5 6.665 6.201 3 12 3z"/>
  <path fill="#000" d="M17.5 11.724H14.7v1.26h2.24v.933H14.7v2.073h-.98v-5.2h3.78v.934zm-5.267 2.816c0 .653-.433 1.019-1.204 1.019-.77 0-1.204-.366-1.204-1.019v-1.537c0-.653.433-1.019 1.204-1.019.77 0 1.204.366 1.204 1.019v1.537zm-.98-1.537c0-.177-.067-.275-.224-.275-.158 0-.224.098-.224.275v1.537c0 .177.067.275.224.275.158 0 .224-.098.224-.275v-1.537zm-1.456 2.556l-1.204-4.266h1.037l.747 2.953.747-2.953h1.037l-1.204 4.266h-1.16z"/>
</svg>